<svg width="74" height="67" viewBox="0 0 74 67" fill="none" xmlns="http://www.w3.org/2000/svg">
<path fill-rule="evenodd" clip-rule="evenodd" d="M71.4352 62.8544C65.0046 57.3379 45.8993 41.6403 36.8298 41.6403C27.7563 41.6403 8.66568 57.3272 2.23106 62.8478C2.19241 61.5436 2.15642 60.7516 2.15642 59.5901C2.15642 59.5901 1.99916 57.6726 3.69444 55.7537C17.6432 43.1084 32.2677 36.9211 32.7169 36.7318C37.0777 34.8876 36.8325 35.2343 36.8285 27.8335C36.8285 27.8335 37.023 27.8215 37.147 27.8349C43.2884 28.3909 59.8001 44.4246 69.572 55.2643C69.5893 55.283 71.5005 57.4966 71.5005 59.8301C71.5032 60.9236 71.4712 62.0024 71.4352 62.8544ZM71.1726 53.8055C70.1344 52.6534 45.6821 25.648 36.8298 25.648C27.9802 25.648 3.52651 52.6534 2.48961 53.8042L2.48828 53.8055C2.38699 53.9189 0 56.6485 0 59.8315C0 62.3091 0.163931 64.8026 0.166596 64.8266C0.171927 64.9413 0.229236 65.9948 0.814323 66.2815C0.908949 66.3281 1.01157 66.3521 1.11686 66.3521C1.3341 66.3521 1.57667 66.2548 1.83923 66.0628C2.10311 65.8294 27.0139 43.8152 36.8298 43.8152C46.647 43.8152 71.5591 65.8294 71.8084 66.0521C72.0802 66.2521 72.3255 66.3521 72.5454 66.3521C72.652 66.3521 72.752 66.3281 72.8479 66.2828C73.4317 65.9974 73.489 64.9427 73.4943 64.824C73.4956 64.8053 73.6596 62.3117 73.6596 59.8341C73.6596 56.6485 71.2726 53.9189 71.1726 53.8055ZM71.4005 37.1691C64.9766 31.6592 45.89 15.9776 36.8311 15.9776C27.7669 15.9776 8.695 31.6499 2.26704 37.1638C2.22839 35.8623 2.19241 35.0689 2.19241 33.9101C2.19241 33.9101 2.03514 31.9939 3.72909 30.0778C17.6645 17.4445 32.2744 11.2638 32.7222 11.0745C37.079 9.23161 36.8338 9.57832 36.8298 2.18556C36.8298 2.18556 37.023 2.17356 37.1483 2.18689C43.2831 2.74295 59.7788 18.7606 69.54 29.5884C69.5573 29.607 71.4672 31.8179 71.4672 34.1502C71.4685 35.2409 71.4352 36.3184 71.4005 37.1691ZM71.138 28.1296C70.0997 26.9788 45.6727 0 36.8298 0C27.9895 0 3.55983 26.9788 2.52427 28.1282L2.52293 28.1296C2.42164 28.2429 0.0359858 30.9698 0.0359858 34.1502C0.0359858 36.6251 0.201249 39.116 0.202582 39.14C0.207913 39.2547 0.265222 40.3068 0.848976 40.5935C0.943603 40.6402 1.04623 40.6628 1.15151 40.6628C1.36876 40.6628 1.60999 40.5655 1.87254 40.3735C2.13777 40.1401 27.0233 18.1485 36.8298 18.1485C46.6376 18.1485 71.5245 40.1401 71.7737 40.3628C72.0443 40.5628 72.2895 40.6615 72.5094 40.6615C72.616 40.6615 72.716 40.6388 72.8119 40.5922C73.3944 40.3068 73.453 39.2534 73.457 39.1347C73.4583 39.116 73.6223 36.6251 73.6223 34.1502C73.6236 30.9698 71.2393 28.2429 71.138 28.1296Z" fill="white"/>
</svg>
