<?xml version="1.0" encoding="utf-8"?>
<!-- Generator: Adobe Illustrator 25.2.3, SVG Export Plug-In . SVG Version: 6.00 Build 0)  -->
<svg version="1.1" id="Calque_1" xmlns="http://www.w3.org/2000/svg" xmlns:xlink="http://www.w3.org/1999/xlink" x="0px" y="0px"
	 viewBox="0 0 472.9 523.4" style="enable-background:new 0 0 472.9 523.4;" xml:space="preserve">
<style type="text/css">
	.st0{fill:#FFFFFF;}
</style>
<g>
	<path class="st0" d="M201.5,308.8c2.8-10.4,15.2-11.8,21.7-12c2.3,0,4.8,0.5,6.9,1.4c4.4,2.1,12,6.2,13.6,12.9
		c2.3,9.5,0,17.5-6.7,23.5c-6.7,6.2-15.7,5.5-25.2,2.5C202.2,333.9,198,322.6,201.5,308.8 M294,327.5c0.5-3.5,1.8-6.9,4.2-9.7
		c3-3.9,8.1-9,14.1-9c9.7-0.2,17.8,4.2,22.6,11.8c4.6,7.8,2.3,16.4-2.5,24.9s-17.8,9.7-30.7,3.5C292.9,344.8,293.1,333.9,294,327.5
		 M33,453.5l328.8,69.9l75.2-168.9l35.8-340.6L341.1,0l-24.2,230.8L275.5,36.2L145.6,63.7l41.3,194.5L0,297.9L33,453.5z"/>
</g>
</svg>
