<svg enable-background="new 0 0 212.5 97.2" viewBox="0 0 212.5 97.2" xmlns="http://www.w3.org/2000/svg"><g fill="#fff"><path d="m146.6 84.5 4.5-6.9 11.3 18.7h-8.5zm-45.6-9.6v21.3h7.5v-19.5l14.8-25.8h-8.7zm-6.1-24h-8.8l11.7 19.1 4.1-7.1zm-71.4-.9c13.5 0 23.6 10.1 23.6 23.6s-10.1 23.6-23.5 23.6c-2.1 0-4.2-.3-6.1-.8l-1.2-.3 3.3-6.7.4.1c1.1.3 2.4.4 3.6.4 9.2 0 15.9-6.9 15.9-16.3 0-9.6-6.5-16.3-15.9-16.3s-16 6.7-16 16.3c0 5.9 2.1 10.2 6.5 13.3l-3.5 6.5c-6.9-4.4-10.6-11.2-10.6-19.8 0-13.5 10.1-23.6 23.5-23.6m59.3 14.3c0 6.2-2.9 10.3-8.8 12.4l11.8 19.6h-9.1l-11-18.6h-3.9v18.6h-7.5v-45.4h14.4l-3 7.2h-3.9v12.4h7.2c3.8 0 6.3-2.5 6.3-6.2 0-2.4-1.3-4.5-3.5-5.5l-.7-.4 2.8-6.6 1 .4c5 1.9 7.9 6.3 7.9 12.1m78.7-13.4-28.4 45.4h-8.6l14.8-23.7-13.1-21.7h8.7l8.8 14.7 9.2-14.7z"/><path d="m143.4 0-3.5 5.5 62.9 38.3-4.5 7.1h-20l-10.8 17.1h8.7l6.2-9.9h20.1l10-16z"/><path d="m124.3 13.4 37.7 22.9 3.4-5.4-37.7-23z"/></g></svg>