<?xml version="1.0" standalone="no"?>
<!DOCTYPE svg PUBLIC "-//W3C//DTD SVG 20010904//EN"
 "http://www.w3.org/TR/2001/REC-SVG-20010904/DTD/svg10.dtd">
<svg version="1.0" xmlns="http://www.w3.org/2000/svg"
 width="361.000000pt" height="361.000000pt" viewBox="0 0 361.000000 361.000000"
 preserveAspectRatio="xMidYMid meet">
<metadata>
Created by potrace 1.11, written by Peter Selinger 2001-2013
</metadata>
<g transform="translate(0.000000,361.000000) scale(0.100000,-0.100000)"
fill="#000000" stroke="none">
<path d="M1782 3526 l-3 -86 45 0 c61 0 100 33 100 84 0 51 -29 78 -91 83
l-49 5 -2 -86z m96 31 c6 -5 12 -20 12 -32 0 -25 -14 -39 -47 -48 -22 -5 -23
-2 -23 48 0 50 1 53 23 48 12 -3 28 -10 35 -16z"/>
<path d="M1623 3555 c4 -25 4 -45 1 -45 -4 0 -27 15 -53 33 -75 55 -74 55 -67
11 3 -22 8 -60 12 -86 5 -37 10 -48 24 -48 15 0 17 7 12 46 -6 53 -8 53 72 -4
l48 -35 -7 74 c-4 41 -8 80 -8 87 0 6 -9 12 -20 12 -18 0 -19 -5 -14 -45z"/>
<path d="M2202 3484 c-29 -37 -52 -71 -52 -75 0 -12 27 -11 35 1 11 18 57 11
62 -9 5 -19 31 -36 40 -27 6 6 -18 159 -27 169 -4 4 -30 -22 -58 -59z m38 -19
c0 -8 -4 -15 -10 -15 -5 0 -7 7 -4 15 4 8 8 15 10 15 2 0 4 -7 4 -15z"/>
<path d="M1307 3508 c-15 -86 -19 -148 -8 -148 6 0 16 11 22 24 14 29 44 39
60 20 13 -16 35 -18 44 -4 5 9 -88 131 -105 138 -4 2 -10 -12 -13 -30z m43
-59 c0 -5 -4 -9 -10 -9 -5 0 -10 7 -10 16 0 8 5 12 10 9 6 -3 10 -10 10 -16z"/>
<path d="M2424 3468 c-73 -35 -45 -158 36 -158 39 0 40 25 0 33 -52 11 -53 88
-1 95 12 2 29 -2 37 -9 12 -10 18 -9 31 3 14 15 13 18 -15 32 -35 18 -58 19
-88 4z"/>
<path d="M1058 3447 l-27 -12 30 -70 c35 -81 39 -87 58 -76 10 7 10 13 2 29
-15 29 2 37 34 16 24 -16 55 -14 55 4 0 5 -11 14 -24 20 -18 8 -22 16 -19 37
11 53 -46 80 -109 52z m67 -43 c0 -10 -7 -20 -16 -22 -21 -4 -34 28 -17 40 19
11 33 4 33 -18z"/>
<path d="M2634 3388 c-4 -7 0 -16 9 -22 14 -9 13 -17 -16 -68 -27 -50 -30 -60
-17 -68 12 -7 21 2 45 45 25 45 34 54 54 52 40 -4 34 20 -12 47 -50 30 -53 30
-63 14z"/>
<path d="M865 3343 c-16 -8 -32 -17 -34 -19 -5 -4 78 -144 86 -144 3 0 20 9
38 20 44 27 50 56 19 87 -13 13 -24 28 -24 33 0 13 -30 40 -43 40 -7 -1 -25
-8 -42 -17z m49 -32 c3 -5 0 -14 -8 -20 -10 -9 -15 -8 -19 3 -9 22 15 37 27
17z m46 -61 c0 -11 -30 -21 -42 -14 -7 5 -4 12 7 20 18 13 35 10 35 -6z"/>
<path d="M2787 3213 c-40 -57 -44 -69 -31 -76 8 -5 17 -7 18 -5 76 96 99 148
68 148 -5 0 -29 -30 -55 -67z"/>
<path d="M2956 3181 c-13 -21 -56 -154 -51 -159 5 -6 154 58 160 68 3 4 -1 13
-8 19 -10 8 -24 6 -52 -9 -21 -11 -40 -18 -42 -16 -2 2 3 21 12 42 13 32 14
40 1 52 -9 10 -16 11 -20 3z"/>
<path d="M610 3015 c-19 -23 -1 -39 21 -19 10 9 16 21 13 25 -8 13 -20 11 -34
-6z"/>
<path d="M1506 2954 c-28 -29 -33 -67 -15 -107 12 -26 57 -57 83 -57 27 0 18
-45 -19 -94 -38 -50 -33 -67 11 -34 85 65 125 158 103 240 -20 76 -110 105
-163 52z"/>
<path d="M3077 2954 c-64 -21 -76 -28 -67 -39 6 -8 18 -11 26 -8 23 9 45 -17
42 -51 -2 -21 2 -31 12 -33 10 -2 27 24 52 77 22 48 32 80 25 80 -7 -1 -47
-12 -90 -26z m33 -34 c0 -5 -4 -10 -10 -10 -5 0 -10 5 -10 10 0 6 5 10 10 10
6 0 10 -4 10 -10z"/>
<path d="M1243 2913 c-57 -14 -103 -28 -103 -32 0 -4 11 -13 25 -19 14 -6 26
-17 26 -24 1 -7 3 -165 4 -351 2 -354 3 -369 48 -397 27 -17 187 -25 187 -9 0
6 -9 13 -20 16 -10 3 -23 15 -27 27 -4 11 -7 199 -8 416 0 343 -2 395 -15 396
-8 1 -61 -9 -117 -23z"/>
<path d="M314 2814 c-16 -20 -23 -38 -18 -42 132 -92 134 -93 140 -77 4 9 -1
24 -10 34 -14 15 -15 23 -5 44 10 22 9 31 -5 52 -25 38 -68 34 -102 -11z m76
-18 c-1 -27 -16 -36 -35 -22 -16 12 -17 16 -6 29 13 17 41 12 41 -7z"/>
<path d="M3263 2843 c-8 -3 -11 -14 -7 -27 4 -18 -3 -28 -45 -54 -28 -17 -51
-36 -51 -41 0 -23 22 -19 74 14 50 32 56 33 65 17 8 -13 12 -14 22 -5 10 10
10 17 0 35 -21 41 -46 66 -58 61z"/>
<path d="M1800 2664 c-106 -23 -110 -24 -110 -34 0 -6 6 -10 14 -10 33 0 37
-26 36 -232 0 -192 1 -205 22 -247 31 -60 80 -85 164 -84 60 1 125 25 166 60
16 14 18 13 27 -10 5 -14 20 -29 33 -33 23 -8 179 -6 188 3 3 2 -6 13 -20 23
l-25 19 0 278 c0 244 -2 278 -16 281 -21 4 -202 -37 -213 -49 -6 -6 -4 -9 7
-9 37 0 45 -38 42 -190 -2 -80 -4 -173 -4 -207 -1 -55 -4 -64 -26 -79 -43 -28
-105 -30 -138 -4 l-28 22 2 257 1 256 -28 2 c-16 1 -58 -5 -94 -13z"/>
<path d="M216 2654 c-3 -9 -6 -17 -6 -18 0 -1 22 -13 49 -26 56 -26 69 -46 46
-69 -13 -14 -19 -13 -60 7 -54 26 -75 28 -75 7 0 -16 91 -65 121 -65 8 0 25 9
38 21 17 16 21 30 19 57 -3 34 -8 40 -64 69 -53 28 -63 31 -68 17z"/>
<path d="M3315 2616 c-60 -34 -74 -49 -56 -61 15 -8 153 65 148 79 -7 20 -31
15 -92 -18z"/>
<path d="M3355 2465 c-54 -54 -13 -145 65 -145 33 0 80 53 80 90 0 44 -39 80
-85 80 -25 0 -44 -8 -60 -25z m94 -19 c16 -11 19 -45 4 -65 -18 -27 -58 -27
-77 0 -32 46 23 95 73 65z"/>
<path d="M131 2399 c-45 -27 -56 -62 -34 -108 47 -94 186 -37 153 63 -10 30
-28 46 -71 59 -9 3 -31 -3 -48 -14z m67 -35 c27 -18 27 -61 1 -77 -50 -31
-105 38 -59 75 27 22 30 22 58 2z"/>
<path d="M3475 2223 c-76 -16 -95 -27 -79 -43 7 -7 25 -8 52 -2 l42 10 -27
-47 c-15 -25 -31 -52 -36 -59 -17 -22 0 -25 65 -13 92 18 98 20 91 37 -5 13
-15 14 -51 9 l-45 -7 23 39 c13 21 30 47 37 58 15 22 17 36 6 34 -5 -1 -39 -8
-78 -16z"/>
<path d="M68 2148 c-27 -9 -31 -16 -43 -74 l-6 -31 76 -12 c97 -14 95 -14 95
9 0 15 -7 20 -25 20 -30 0 -33 16 -5 25 26 8 50 33 50 50 0 12 -5 12 -34 0
-22 -9 -37 -11 -41 -5 -12 20 -40 27 -67 18z m42 -58 c0 -13 -7 -20 -18 -20
-24 0 -32 8 -25 26 8 22 43 17 43 -6z"/>
<path d="M2467 1915 c-26 -6 -69 -26 -97 -43 l-50 -31 0 27 c0 57 -10 59 -121
20 -93 -31 -136 -58 -96 -58 9 0 23 -7 31 -16 24 -23 24 -429 0 -462 -8 -12
-22 -22 -30 -22 -20 0 -17 -20 4 -21 22 -1 231 -1 255 0 24 1 21 14 -5 26 -23
10 -23 11 -23 245 l0 235 45 23 c51 26 106 24 127 -5 10 -12 13 -77 13 -239 0
-122 -3 -230 -6 -239 -4 -9 -18 -21 -32 -26 -14 -5 -22 -12 -20 -15 5 -4 198
-8 273 -5 29 2 29 2 10 16 -11 8 -26 19 -32 25 -10 8 -13 67 -13 228 0 206 -1
220 -22 262 -37 72 -114 100 -211 75z"/>
<path d="M89 1908 c0 -7 -2 -21 -4 -30 -5 -25 16 -34 30 -15 17 23 25 21 25
-6 0 -29 -18 -47 -46 -47 -34 0 -57 28 -50 61 3 16 1 31 -5 35 -33 20 -43 -76
-11 -108 66 -67 176 7 143 95 -9 22 -17 27 -46 27 -21 0 -35 -5 -36 -12z"/>
<path d="M865 1896 c-9 -28 -14 -156 -7 -160 5 -3 25 24 46 60 23 40 47 69 62
74 14 6 68 10 120 10 l94 0 -14 -22 c-161 -260 -327 -540 -323 -545 8 -8 506
-8 513 0 9 8 18 187 10 187 -3 0 -21 -31 -40 -68 -19 -38 -42 -74 -51 -82 -17
-14 -206 -22 -226 -9 -6 4 53 112 147 269 86 145 159 271 161 280 4 16 -15 17
-242 17 -169 0 -248 -4 -250 -11z"/>
<path d="M1435 1899 c-3 -4 4 -10 15 -14 11 -4 27 -16 35 -28 19 -30 255 -595
255 -612 0 -24 -59 -145 -71 -145 -6 0 -31 18 -55 40 -48 44 -84 51 -122 24
-74 -52 -26 -154 73 -154 69 0 123 45 173 145 16 33 76 186 132 340 136 372
136 372 171 384 52 18 31 29 -56 29 -83 -1 -110 -11 -61 -24 31 -7 37 -24 26
-64 -15 -51 -112 -314 -120 -323 -10 -12 -142 341 -135 363 3 10 15 20 25 23
11 3 20 10 20 15 0 12 -298 13 -305 1z"/>
<path d="M3478 1804 c-33 -17 -52 -71 -39 -106 7 -19 18 -27 45 -30 20 -2 37
-2 37 2 9 44 6 60 -12 60 -10 0 -19 -4 -19 -10 0 -5 -5 -10 -11 -10 -20 0 -4
45 21 57 37 18 65 -4 64 -50 -1 -33 18 -58 30 -38 27 43 3 117 -42 127 -15 3
-32 7 -37 9 -6 1 -23 -3 -37 -11z"/>
<path d="M3420 1553 c0 -12 11 -23 28 -30 l27 -10 -37 -17 c-25 -11 -38 -23
-38 -36 0 -17 3 -18 26 -8 20 10 30 9 55 -6 53 -31 99 1 99 69 0 21 -7 25 -57
35 -32 6 -68 14 -80 17 -18 4 -23 1 -23 -14z m118 -62 c-2 -9 -11 -17 -21 -19
-12 -3 -17 3 -17 21 0 20 4 24 20 20 12 -3 20 -12 18 -22z"/>
<path d="M107 1514 c-33 -8 -63 -16 -67 -19 -15 -9 1 -36 19 -31 9 3 29 8 45
12 l29 7 -38 -67 c-20 -36 -32 -66 -26 -66 23 0 161 33 161 39 -1 23 -18 29
-55 21 -22 -5 -40 -8 -41 -7 -1 1 13 28 32 60 19 32 34 60 34 62 0 8 -32 4
-93 -11z"/>
<path d="M3420 1343 c-60 -17 -83 -54 -68 -111 7 -25 18 -37 46 -49 34 -14 40
-14 71 3 45 25 59 72 34 114 -17 30 -56 50 -83 43z m44 -52 c41 -46 -18 -107
-64 -66 -24 22 -25 42 -3 67 21 23 45 23 67 -1z"/>
<path d="M174 1258 c-64 -30 -61 -138 4 -155 40 -11 45 -10 73 4 60 29 55 123
-7 149 -38 16 -42 16 -70 2z m70 -44 c22 -21 20 -47 -4 -69 -45 -40 -105 20
-65 65 22 24 48 26 69 4z"/>
<path d="M1993 1141 c-73 -25 -118 -58 -158 -116 -43 -64 -59 -127 -53 -218 8
-123 63 -208 166 -258 68 -33 198 -33 264 -1 49 24 132 108 123 123 -3 4 -25
-5 -49 -22 -71 -51 -162 -59 -231 -20 -39 21 -75 94 -82 165 l-6 56 187 0 186
0 1 28 c2 66 -4 100 -27 149 -54 112 -188 160 -321 114z m124 -17 c37 -10 63
-79 63 -167 l0 -77 -106 0 -107 0 6 76 c12 138 58 191 144 168z"/>
<path d="M3289 1093 c-8 -2 -23 -17 -33 -33 -15 -26 -15 -34 -4 -56 17 -34
108 -86 125 -72 18 14 9 25 -48 53 -51 26 -60 44 -33 66 13 10 24 8 70 -14 47
-23 55 -25 61 -12 3 9 4 17 2 19 -10 9 -109 56 -116 55 -4 -1 -15 -3 -24 -6z"/>
<path d="M290 1003 c-36 -20 -67 -37 -68 -39 -2 -1 0 -9 5 -18 7 -13 19 -9 78
24 65 36 85 59 60 67 -5 1 -39 -14 -75 -34z"/>
<path d="M3156 894 c-4 -11 1 -22 13 -31 18 -12 18 -16 6 -40 -21 -40 5 -83
52 -83 19 0 73 51 73 69 0 7 -88 72 -126 94 -7 4 -15 0 -18 -9z m92 -91 c5
-17 -26 -29 -40 -15 -6 6 -7 15 -3 22 9 14 37 9 43 -7z"/>
<path d="M394 855 c-45 -32 -50 -34 -62 -18 -9 13 -15 14 -23 6 -9 -9 -4 -23
17 -57 31 -49 50 -55 47 -15 -1 18 11 32 48 58 46 32 57 50 33 58 -6 2 -32
-13 -60 -32z"/>
<path d="M495 699 c-20 -44 -35 -82 -33 -84 8 -9 168 50 165 60 -2 5 -13 10
-24 10 -32 1 -55 25 -49 51 3 12 0 27 -8 33 -10 9 -21 -6 -51 -70z m50 -19 c3
-5 -1 -10 -10 -10 -9 0 -13 5 -10 10 3 6 8 10 10 10 2 0 7 -4 10 -10z"/>
<path d="M2951 596 c-7 -9 -8 -17 -2 -20 14 -9 41 4 41 20 0 18 -24 18 -39 0z"/>
<path d="M643 542 c-40 -20 -73 -39 -73 -43 0 -17 35 -17 70 1 l39 20 -16 -46
c-13 -39 -13 -48 -2 -55 8 -5 16 -9 19 -9 3 0 17 38 31 85 16 53 22 85 15 84
-6 0 -44 -17 -83 -37z"/>
<path d="M820 405 c-23 -35 -39 -69 -35 -75 11 -18 23 -8 69 60 31 45 41 67
33 72 -20 13 -23 10 -67 -57z"/>
<path d="M2693 440 c-17 -10 -36 -27 -41 -37 -12 -22 2 -63 20 -63 8 0 19 -13
25 -30 8 -20 18 -30 33 -30 24 0 80 27 80 39 0 4 -19 38 -43 74 l-42 67 -32
-20z m30 -44 c6 -15 -19 -30 -34 -20 -6 3 -5 11 2 20 15 18 25 18 32 0z m35
-64 c2 -7 -3 -12 -12 -12 -9 0 -16 7 -16 16 0 17 22 14 28 -4z"/>
<path d="M983 325 c-23 -46 -31 -55 -52 -53 -43 5 -33 -20 19 -47 45 -23 51
-24 57 -9 3 9 0 20 -8 25 -11 6 -9 18 14 64 26 53 28 75 6 75 -5 0 -21 -25
-36 -55z"/>
<path d="M2521 341 c-10 -6 -10 -13 -2 -28 15 -29 3 -35 -29 -16 -17 10 -35
13 -46 9 -18 -7 -17 -9 6 -28 15 -12 25 -32 26 -49 3 -57 45 -75 104 -44 26
13 28 18 20 39 -11 29 -59 126 -63 126 -1 0 -8 -4 -16 -9z m27 -132 c-8 -5
-19 -2 -28 7 -13 14 -13 17 5 30 18 13 20 12 28 -8 5 -14 3 -24 -5 -29z"/>
<path d="M1155 289 c-9 -13 0 -22 28 -26 30 -5 40 -17 40 -49 0 -45 -47 -69
-76 -39 -13 13 -17 13 -28 -1 -22 -26 24 -51 81 -45 25 3 60 50 60 81 0 42 -9
59 -41 75 -33 18 -55 19 -64 4z"/>
<path d="M2327 263 c-4 -3 -7 -14 -7 -24 0 -23 -50 -32 -66 -12 -8 12 -16 13
-28 6 -16 -9 -11 -18 39 -77 32 -37 61 -64 65 -59 13 12 24 173 13 173 -5 0
-13 -3 -16 -7z m-17 -88 c0 -8 -2 -15 -4 -15 -2 0 -6 7 -10 15 -3 8 -1 15 4
15 6 0 10 -7 10 -15z"/>
<path d="M1357 233 c-6 -11 24 -173 32 -173 3 0 30 33 59 73 41 56 50 73 37
75 -9 2 -22 -2 -30 -8 -20 -17 -62 -4 -68 20 -5 20 -22 27 -30 13z m63 -83 c0
-5 -4 -10 -10 -10 -5 0 -10 5 -10 10 0 6 5 10 10 10 6 0 10 -4 10 -10z"/>
<path d="M2099 203 c-13 -3 -15 -11 -8 -46 4 -23 6 -43 5 -44 -1 -1 -28 15
-61 37 -33 22 -60 38 -62 36 -2 -1 2 -39 9 -84 9 -70 14 -82 30 -82 17 0 18 5
12 46 -7 52 -11 52 63 2 23 -15 46 -28 51 -28 7 0 -12 159 -20 164 -2 1 -10 1
-19 -1z"/>
<path d="M1769 169 c-35 -13 -53 -49 -45 -92 9 -47 29 -61 89 -62 l50 0 1 70
c1 39 0 76 -2 83 -5 14 -55 15 -93 1z m61 -78 c0 -49 -1 -50 -27 -45 -62 11
-58 94 4 94 21 0 23 -5 23 -49z"/>
</g>
</svg>
