<svg width="100" height="32" viewBox="0 0 100 32" fill="none" xmlns="http://www.w3.org/2000/svg">
<path d="M14.83 2C15.55 2 16.13 2.26 16.57 2.78C17.01 3.3 17.23 3.98 17.23 4.81C17.23 5.9 16.91 6.92 16.26 7.87C15.62 8.82 14.82 9.52 13.86 9.99L13.69 9.64C14.1 9.33 14.46 8.93 14.77 8.44C15.08 7.95 15.31 7.35 15.44 6.63L14.83 6.48C14.15 6.32 13.62 6.04 13.23 5.62C12.85 5.19 12.66 4.69 12.66 4.11C12.66 3.49 12.87 2.98 13.29 2.59C13.71 2.19 14.22 2 14.83 2Z" fill="white"/>
<path d="M23.49 23.83C22.73 23.83 22.03 23.68 21.4 23.39C20.77 23.1 20.27 22.62 19.91 21.97C19.55 21.32 19.38 20.45 19.4 19.38L19.49 11.86C19.49 11.41 19.41 11.09 19.26 10.89C19.1 10.7 18.86 10.56 18.53 10.48L18.18 10.36V10.08L23.42 9.06L23.71 9.35L23.56 13.51V20.56C23.56 21.18 23.74 21.64 24.1 21.94C24.46 22.23 24.91 22.38 25.46 22.38C26.01 22.38 26.49 22.3 26.92 22.15C27.35 22 27.78 21.76 28.21 21.45L28.33 11.91C28.33 11.46 28.26 11.14 28.13 10.96C27.99 10.77 27.74 10.64 27.37 10.56L27.08 10.47V10.17L32.2 9.06L32.49 9.35L32.4 13.51V21.44C32.4 21.87 32.46 22.2 32.58 22.44C32.7 22.67 32.95 22.87 33.34 23.03L33.63 23.12V23.41L29.76 23.63C29.05 23.67 28.42 23.16 28.32 22.46L28.25 21.98C27.61 22.51 26.91 22.95 26.16 23.31C25.39 23.65 24.51 23.83 23.49 23.83Z" fill="white"/>
<path d="M35.46 23.39V22.92L43.45 9.9H39.03C38.52 9.9 38.12 10.04 37.83 10.31C37.54 10.58 37.26 10.94 37.01 11.39L35.96 13.35H35.67L35.88 9.31H47.59V9.72L39.78 22.8H44.38C45 22.8 45.46 22.65 45.76 22.36C46.05 22.07 46.33 21.67 46.58 21.16L47.58 19H47.87L47.61 23.39H35.46Z" fill="white"/>
<path d="M52.44 30.42C51.66 30.42 51.04 30.22 50.58 29.83C50.12 29.44 49.89 28.94 49.89 28.34C49.89 27.79 50.08 27.35 50.47 27.02C50.86 26.69 51.3 26.52 51.79 26.52C52.28 26.52 52.69 26.62 53.02 26.83C53.35 27.04 53.64 27.33 53.9 27.72L54.11 27.95C54.54 28.54 54.97 28.53 55.4 27.92C55.58 27.63 55.78 27.24 56 26.76C56.22 26.28 56.48 25.64 56.78 24.84L51.09 11.28C50.95 10.91 50.81 10.61 50.65 10.39C50.49 10.17 50.24 9.98 49.89 9.82L49.36 9.61V9.32H56.65V9.58L56.06 9.81C55.63 9.95 55.41 10.17 55.4 10.47C55.39 10.77 55.46 11.15 55.62 11.6L58.66 19.5L61.56 11.51C61.72 11.06 61.77 10.69 61.74 10.38C61.7 10.08 61.46 9.87 61.01 9.75L60.4 9.61V9.32H64.47V9.61L63.83 9.82C63.38 9.96 63.07 10.15 62.89 10.4C62.71 10.65 62.55 11.01 62.39 11.45L57.68 24.3C56.92 26.35 56.16 27.88 55.4 28.9C54.63 29.91 53.65 30.42 52.44 30.42Z" fill="white"/>
<path d="M64.85 23.39V23.1L65.26 22.98C65.94 22.79 66.28 22.31 66.28 21.55V12.39C66.28 11.96 66.21 11.64 66.07 11.44C65.93 11.24 65.67 11.09 65.28 11.02L64.85 10.9V10.6L69.85 8.9L70.14 9.19L70.37 10.95C71.05 10.35 71.82 9.85 72.68 9.46C73.54 9.07 74.39 8.88 75.23 8.88C76.52 8.88 77.51 9.23 78.2 9.93C78.89 10.63 79.24 11.71 79.24 13.15V21.58C79.24 22.34 79.61 22.82 80.35 23.01L80.61 23.1V23.39H73.7V23.1L74.08 22.98C74.76 22.77 75.1 22.29 75.1 21.55V12.21C75.1 10.96 74.48 10.34 73.23 10.34C72.37 10.34 71.43 10.77 70.42 11.63V21.58C70.42 22.34 70.76 22.82 71.44 23.01L71.7 23.1V23.39H64.85V23.39Z" fill="white"/>
<path d="M89.11 8.88C90.38 8.88 91.46 9.14 92.36 9.66C93.26 10.18 93.94 10.88 94.42 11.77C94.9 12.66 95.14 13.67 95.14 14.8C95.14 15.01 95.13 15.23 95.11 15.46C95.09 15.68 95.05 15.88 94.99 16.06H86.27C86.29 18.17 86.67 19.68 87.4 20.61C88.13 21.54 89.22 22 90.66 22C91.64 22 92.43 21.84 93.03 21.53C93.63 21.22 94.2 20.76 94.73 20.15L95.02 20.41C94.42 21.48 93.61 22.32 92.61 22.93C91.6 23.53 90.4 23.84 89 23.84C87.61 23.84 86.39 23.54 85.31 22.95C84.24 22.35 83.4 21.5 82.79 20.39C82.19 19.28 81.88 17.95 81.88 16.41C81.88 14.81 82.23 13.45 82.93 12.33C83.63 11.21 84.53 10.35 85.64 9.77C86.74 9.17 87.9 8.88 89.11 8.88ZM89.02 9.46C88.45 9.46 87.97 9.63 87.57 9.97C87.17 10.31 86.86 10.92 86.63 11.78C86.41 12.65 86.28 13.87 86.26 15.45H91.26C91.45 13.32 91.38 11.79 91.03 10.85C90.69 9.93 90.02 9.46 89.02 9.46Z" fill="white"/>
<path d="M5.43 5.86C5.43 5.47 5.35 5.17 5.2 4.97C5.04 4.77 4.77 4.61 4.38 4.52L4 4.43V4.14L9.36 2.88L9.71 3.14L9.59 7.24V17.25C9.59 17.97 9.59 18.69 9.6 19.4C9.61 20.11 9.61 20.82 9.61 21.52C9.61 21.91 9.69 22.23 9.84 22.47C10 22.71 10.26 22.89 10.63 23.01L11.01 23.1V23.39H7.89C6.54 23.39 5.44 22.29 5.44 20.94L5.43 5.86Z" fill="white"/>
</svg>
