<svg width="32" height="32" viewBox="0 0 32 32" fill="none" xmlns="http://www.w3.org/2000/svg">
<path d="M14.4876 10.695L15.2379 11.1452L15.5894 10.5594L15.1063 10.0763L14.4876 10.695ZM9.56479 5.77221L10.1835 5.1535L9.61419 4.58418L8.99958 5.10426L9.56479 5.77221ZM12.0696 13.113L11.7721 12.2901L11.7721 12.2901L12.0696 13.113ZM13.4654 18.6708L12.8287 19.271L12.8464 19.2898L12.8651 19.3074L13.4654 18.6708ZM19.0231 20.0664L19.8459 20.364L19.8459 20.364L19.0231 20.0664ZM21.441 17.6484L22.0597 17.0297L21.5766 16.5466L20.9908 16.8981L21.441 17.6484ZM26.3638 22.5712L27.0318 23.1364L27.5518 22.5218L26.9825 21.9525L26.3638 22.5712ZM10.8181 21.3178L11.4506 20.7132L11.437 20.6989L11.4227 20.6853L10.8181 21.3178ZM15.1063 10.0763L10.1835 5.1535L8.94607 6.39093L13.8689 11.3137L15.1063 10.0763ZM12.3672 13.9358C13.051 13.6885 13.6402 13.1818 14.0957 12.6878C14.5632 12.1809 14.9568 11.6137 15.2379 11.1452L13.7373 10.2448C13.5002 10.6399 13.1757 11.1041 12.8093 11.5015C12.4308 11.9118 12.0702 12.1823 11.7721 12.2901L12.3672 13.9358ZM14.102 18.0705C13.7131 17.658 12.7622 16.591 12.2341 15.5493C11.9631 15.0148 11.8734 14.6196 11.9014 14.3779C11.9129 14.2784 11.9428 14.2157 11.9863 14.1642C12.0339 14.108 12.1381 14.0187 12.3672 13.9358L11.7721 12.2901C11.3231 12.4525 10.9376 12.6945 10.6505 13.0337C10.3594 13.3777 10.2096 13.7745 10.163 14.1764C10.0748 14.9376 10.3551 15.7132 10.6732 16.3406C11.3232 17.6228 12.4263 18.8442 12.8287 19.271L14.102 18.0705ZM12.8651 19.3074C13.292 19.7099 14.5135 20.813 15.7956 21.4629C16.423 21.781 17.1986 22.0612 17.9597 21.973C18.3616 21.9264 18.7584 21.7766 19.1024 21.4854C19.4415 21.1984 19.6835 20.8129 19.8459 20.364L18.2002 19.7688C18.1174 19.9979 18.028 20.1021 17.9718 20.1497C17.9203 20.1932 17.8577 20.2231 17.7582 20.2346C17.5164 20.2627 17.1213 20.1729 16.5868 19.902C15.5452 19.374 14.4782 18.4232 14.0656 18.0341L12.8651 19.3074ZM19.8459 20.364C19.9537 20.0658 20.2242 19.7052 20.6346 19.3268C21.0319 18.9603 21.4961 18.6358 21.8912 18.3987L20.9908 16.8981C20.5223 17.1792 19.9551 17.5728 19.4482 18.0403C18.9542 18.4958 18.4475 19.085 18.2002 19.7688L19.8459 20.364ZM20.8223 18.2672L25.7451 23.19L26.9825 21.9525L22.0597 17.0297L20.8223 18.2672ZM25.6959 22.006C24.3842 23.5561 23.0488 24.4099 21.7643 24.8099C20.4785 25.2104 19.1821 25.1753 17.9197 24.8492C15.3634 24.1887 13.0147 22.3494 11.4506 20.7132L10.1856 21.9224C11.8532 23.6669 14.4746 25.7665 17.4819 26.5435C19.0014 26.9361 20.6351 26.9946 22.2847 26.4808C23.9356 25.9666 25.5408 24.8985 27.0318 23.1364L25.6959 22.006ZM8.99958 5.10426C7.23758 6.59524 6.16945 8.20035 5.65526 9.85124C5.14148 11.5008 5.19988 13.1345 5.59247 14.654C6.36947 17.6612 8.46896 20.2827 10.2135 21.9503L11.4227 20.6853C9.78652 19.1212 7.94731 16.7725 7.28682 14.2162C6.96067 12.9538 6.92562 11.6574 7.32609 10.3716C7.72615 9.0872 8.57997 7.75178 10.13 6.44017L8.99958 5.10426Z" fill="#051DFF"/>
</svg>
