<svg width="25" height="20" viewBox="0 0 25 20" fill="none" xmlns="http://www.w3.org/2000/svg">
<path d="M21 7L24 4L21 1" stroke="white" stroke-width="1.16667"/>
<path d="M4 0.999999L1 4L4 7" stroke="white" stroke-width="1.16667"/>
<path d="M8 4H1" stroke="white" stroke-width="1.16667"/>
<path d="M24 4L16 4" stroke="white" stroke-width="1.16667"/>
<path d="M14.6113 19.6329C15.7539 19.6329 16.7559 19.3898 17.6172 18.9034C18.4844 18.4171 19.1611 17.7169 19.6475 16.8029C20.1396 15.8829 20.3857 14.7755 20.3857 13.4806V11.714C20.3857 10.7648 20.1748 10.0265 19.7529 9.49914C19.3311 8.96594 18.7393 8.69348 17.9775 8.68176C17.8896 8.38293 17.7256 8.14856 17.4854 7.97863C17.2451 7.80285 16.9521 7.71496 16.6064 7.71496C16.3662 7.71496 16.1201 7.75598 15.8682 7.83801C15.7686 7.51574 15.5898 7.26086 15.332 7.07336C15.0801 6.88 14.7754 6.78332 14.418 6.78332C14.2129 6.78332 14.0078 6.81555 13.8027 6.88V4.0675C13.8027 3.55774 13.6504 3.15051 13.3457 2.84582C13.0469 2.53527 12.6602 2.38 12.1855 2.38C11.7168 2.38 11.3271 2.53527 11.0166 2.84582C10.7119 3.15051 10.5596 3.55774 10.5596 4.0675V11.1251C10.5596 11.172 10.5361 11.1954 10.4893 11.1954C10.46 11.1954 10.4395 11.1779 10.4277 11.1427L9.80371 9.63977C9.66895 9.3175 9.48438 9.07434 9.25 8.91027C9.02148 8.74035 8.76367 8.65539 8.47656 8.65539C8.08398 8.65539 7.73828 8.77844 7.43945 9.02453C7.14648 9.26477 7 9.60754 7 10.0529C7 10.17 7.01172 10.3048 7.03516 10.4571C7.06445 10.6036 7.09961 10.7443 7.14062 10.879L8.62598 15.045C9.15918 16.5626 9.92676 17.7052 10.9287 18.4728C11.9365 19.2462 13.1641 19.6329 14.6113 19.6329ZM14.6377 18.5958C13.4775 18.5958 12.4639 18.2941 11.5967 17.6905C10.7295 17.0929 10.0469 16.1027 9.54883 14.7198L8.07227 10.5538C8.02539 10.4308 8.00195 10.3048 8.00195 10.1759C8.00195 10.0236 8.05469 9.89172 8.16016 9.78039C8.26562 9.66906 8.40625 9.6134 8.58203 9.6134C8.8457 9.6134 9.04199 9.7716 9.1709 10.088L10.2959 12.628C10.3838 12.8214 10.4863 12.9562 10.6035 13.0323C10.7266 13.1085 10.8584 13.1466 10.999 13.1466C11.1689 13.1466 11.3066 13.088 11.4121 12.9708C11.5176 12.8536 11.5703 12.7042 11.5703 12.5226V3.99719C11.5703 3.80969 11.6289 3.65734 11.7461 3.54016C11.8633 3.41711 12.0098 3.35559 12.1855 3.35559C12.3672 3.35559 12.5137 3.41711 12.625 3.54016C12.7363 3.65734 12.792 3.80969 12.792 3.99719V10.0616C12.792 10.2023 12.8418 10.3195 12.9414 10.4132C13.041 10.5011 13.1553 10.545 13.2842 10.545C13.4189 10.545 13.5332 10.5011 13.627 10.4132C13.7207 10.3195 13.7676 10.2023 13.7676 10.0616V7.87317C13.9316 7.79699 14.1045 7.75891 14.2861 7.75891C14.7549 7.75891 14.9893 8.00793 14.9893 8.50598V10.378C14.9893 10.5245 15.0361 10.6446 15.1299 10.7384C15.2295 10.8263 15.3467 10.8702 15.4814 10.8702C15.6045 10.8702 15.7158 10.8263 15.8154 10.7384C15.915 10.6446 15.9648 10.5245 15.9648 10.378V8.80481C16.1348 8.72863 16.3076 8.69055 16.4834 8.69055C16.9521 8.69055 17.1865 8.93957 17.1865 9.43762V10.6945C17.1865 10.8468 17.2363 10.9669 17.3359 11.0548C17.4355 11.1427 17.5498 11.1866 17.6787 11.1866C17.8018 11.1866 17.9102 11.1427 18.0039 11.0548C18.1035 10.9669 18.1533 10.8468 18.1533 10.6945V9.71887C18.5459 9.71887 18.8477 9.90637 19.0586 10.2814C19.2695 10.6505 19.375 11.1779 19.375 11.8634V13.3663C19.375 14.4913 19.1816 15.4435 18.7949 16.2228C18.4141 16.9962 17.8691 17.5851 17.1602 17.9894C16.4512 18.3937 15.6104 18.5958 14.6377 18.5958Z" fill="white"/>
</svg>
