<?xml version="1.0" encoding="utf-8"?>
<!-- Generator: Adobe Illustrator 26.1.0, SVG Export Plug-In . SVG Version: 6.00 Build 0)  -->
<svg version="1.1" id="Layer_1" xmlns="http://www.w3.org/2000/svg" xmlns:xlink="http://www.w3.org/1999/xlink" x="0px" y="0px"
	 viewBox="0 0 248.8 98.7" style="enable-background:new 0 0 248.8 98.7;" xml:space="preserve">
<style type="text/css">
	.st0{clip-path:url(#SVGID_00000097479881187751917820000009312338759399410867_);fill:#0000FF;}
	.st1{fill:#0000FF;}
	.st2{fill:#FFFFFF;}
	.st3{clip-path:url(#SVGID_00000013167135546486900580000011635454775823889330_);fill:#FFFFFF;}
</style>
<g>
	<defs>
		<rect id="SVGID_1_" y="0" width="248.8" height="98.7"/>
	</defs>
	<clipPath id="SVGID_00000039105922949702706470000003243678558121815698_">
		<use xlink:href="#SVGID_1_"  style="overflow:visible;"/>
	</clipPath>
	<path style="clip-path:url(#SVGID_00000039105922949702706470000003243678558121815698_);fill:#0000FF;" d="M226.3,1.2
		c-0.5-1-1.4-1.3-2.2-1.1c-0.1,0-0.2,0.1-0.4,0.1c-1.1,0.6-2.2,1.1-3.3,1.6l-1,0.5c-9.1,4.6-18.4,9.1-27.5,13.4
		c-14.2,6.8-29,13.8-43,21.7c-0.7-1.5-1.8-2.7-3.2-3.5c-2.1-1.2-4.8-1.6-8.1-1.2c1.6-1.6,2.7-3.1,3.6-4.7c1.4-2.5,1.4-5.2,0.1-7
		c-0.7-0.9-2.4-2.4-5.8-1.6c-6.9,1.8-14,5.5-21.2,11c1-2.4,1.6-4.3,1.6-6c-0.1-1.8-0.9-2.5-1.6-2.8c-1.8-0.8-3.8,0.9-5.5,2.3l0,0
		c-0.4,0.3-0.8,0.7-1,0.8c-0.1,0-0.1,0.1-0.2,0.1c-6.8,5.5-12.9,10.6-18.5,15.8c3.1-6.7,6.2-13.9,8.5-21.3c0.1-0.4,0.2-0.8,0.4-1.4
		l0-0.1c1-3.5,2.5-8.4,0.4-11.1C98,6,96.8,5.1,94.7,5.1c-0.1,0-0.2,0-0.3,0c-2.1,0.3-4,1.2-5.9,2l-0.1,0c-0.4,0.2-0.7,0.3-1.1,0.5
		C78,12,69.5,17.2,60.1,23.1c-16.1,10.1-32,21.3-48.7,34c-2.1,1.5-4,3.2-5.9,4.8c-1.6,1.3-3.2,2.7-4.9,4c-0.5,0.4-0.7,1-0.6,1.9
		c0.1,0.8,0.6,1.4,1.3,1.6c0.5,0.1,1,0,1.5-0.3l3-2.4c3.6-2.8,7.7-6.1,11.7-9C37.7,42.6,55.1,30.9,72,21c4.8-2.8,10.3-6,15.8-8.6
		c0.5-0.2,1.1-0.5,1.8-0.8c1.7-0.8,5.2-2.5,6.2-1.6c0.3,0.8,0,3.3-2.9,11.4l-0.1,0.3c-0.2,0.6-0.4,1.1-0.5,1.5
		c-3.7,9.4-7.9,18.4-11.1,25.2c-9.4,9.1-19.3,19.2-27.5,30.6c-0.2,0.3-0.5,0.7-0.8,1.2l-0.1,0.1c-3.2,4.7-8.5,12.6-4.4,16
		c0.2,0.2,0.4,0.3,0.7,0.3c0.2,0.1,0.5,0.1,0.7,0.1c3.1,0,6.9-4,11.1-8.9l0.1-0.1c0.6-0.7,1.1-1.2,1.5-1.7
		c7.9-9.4,14.9-20.2,20.7-32.3l1-2c1.6-1.5,3.1-2.9,4.4-4.1c3.9-3.6,8.2-7.4,13.3-11.7c2.7-2.3,5.5-4.7,8.2-6.8
		c0.2-0.2,0.5-0.3,0.8-0.6c-0.6,1.4-1.4,2.7-2.1,4l-0.6,1.1c-0.3,0.6-0.6,1.2-1,1.8c-0.6,1-1.2,2.1-1.7,3.2
		c-0.1,0.2-0.1,0.3-0.1,0.5c-0.1,2,0.5,2.5,0.8,2.7c0.4,0.3,1,0.5,1.5,0.4c0.3-0.1,0.5-0.2,0.7-0.3c0.9-0.8,1.8-1.6,2.6-2.3
		c0.9-0.8,1.9-1.7,2.8-2.5c4.1-3.4,14.8-11.3,23.7-12.8c0.5,0,0.9,0,1.1,0.1c-0.2,0.8-1.7,3.1-8.6,9.3c-0.9,0.8-1.6,1.4-1.9,1.8
		c-0.1,0.1-0.1,0.2-0.2,0.3c-0.5,0.8-0.5,2.2,0,3.2c0.4,0.7,1,1.1,1.8,1.2c0.2,0,0.4,0,0.5-0.1c0.7-0.2,1.3-0.4,2-0.6l0.1,0
		c0.7-0.2,1.5-0.5,2.2-0.7c5.9-1.4,9.4-1.2,11,0.8c-9.8,5.8-20.9,12.8-30.1,21.9c-4.4,4.6-6.4,8.2-6,11.1c0.2,1.5,1,2.8,2.4,3.6
		c0.1,0.1,0.3,0.2,0.5,0.2c5.6,1.4,12.9-3,19.4-7.4c11.9-9.1,18.1-18,18.5-26.3c14-8,28.9-14.9,43.4-21.6l0,0
		c8.5-3.9,17.2-8,25.8-12.3c1.7-0.9,3.4-1.9,5-2.8l1.5-0.9C227.1,4.1,226.6,1.8,226.3,1.2 M119.6,63.8l0.2-0.2
		c8.6-7.9,18.3-14,25.8-18.5c-3.7,10.6-20.9,26.2-32,26.6c-0.2,0-0.3,0-0.4-0.1C113.6,70.1,115.7,67.5,119.6,63.8 M74.3,61.5
		c-4.2,7.2-8.9,14-14.1,20.2c-0.5,0.6-1.1,1.3-1.8,2.1l0,0.1c-1.9,2.2-4.6,5.4-6.8,7C54.4,84.1,62,74.2,74.3,61.5"/>
	<path style="clip-path:url(#SVGID_00000039105922949702706470000003243678558121815698_);fill:#0000FF;" d="M113.5,18.9
		c0.2,0.1,0.4,0.1,0.7,0.1c0.1,0,0.1,0,0.2,0c0.6-0.1,1-0.5,1.3-0.9c0.7-0.9,1.5-1.9,2.6-3.1c0.1-0.1,0.2-0.2,0.2-0.3
		c0.5-1-0.1-2.3-0.4-2.7c-0.5-0.6-1.2-0.8-1.9-0.6c-0.2,0.1-0.5,0.2-0.7,0.4c-0.8,0.8-1.7,1.8-2.6,2.9c-0.6,0.6-0.8,1.5-0.7,2.4
		C112.3,17.9,112.8,18.5,113.5,18.9"/>
	<path style="clip-path:url(#SVGID_00000039105922949702706470000003243678558121815698_);fill:#0000FF;" d="M119.4,20.2
		c0.1,0.1,0.1,0.2,0.2,0.2c0.4,0.4,0.8,0.6,1.3,0.6c0,0,0.1,0,0.1,0c0.1,0,0.1,0,0.2,0c0.3-0.1,0.6-0.2,0.9-0.5c0,0,0,0,0,0
		c0.4-0.4,0.7-0.7,1.1-1l0.1,0c0.3-0.3,0.6-0.5,0.9-0.8c0.8-0.7,1.5-1.3,2.2-1.8c0.4-0.3,0.6-0.7,0.7-1.3c0-0.1,0-0.1,0-0.2
		c-0.1-2.1-1.1-2.9-2.1-2.9h0c-0.4,0-0.7,0.1-1,0.3c-0.8,0.7-1.7,1.3-2.5,2l-0.8,0.6C119.4,16.3,118,17.7,119.4,20.2L119.4,20.2z"/>
</g>
<path class="st1" d="M88.7,10.9L88.7,10.9L88.7,10.9z"/>
<polygon class="st2" points="97.8,81.8 95.4,81.8 104,72.9 108,72.9 108,83 104,83 104,76.1 105.2,76.6 99,83 94.2,83 88,76.6 
	89.2,76.2 89.2,83 85.2,83 85.2,72.9 89.2,72.9 "/>
<path class="st2" d="M109.2,83l6.8-10.1h4.4l6.8,10.1h-4.3l-5.9-9.1h2.4l-5.8,9.1H109.2z M112.8,79.1h10.8v2.4h-10.8V79.1z"/>
<g>
	<defs>
		<rect id="SVGID_00000172423235946021762720000004336444714876152503_" y="0" width="248.8" height="98.7"/>
	</defs>
	<clipPath id="SVGID_00000160907208379964443610000014983945107868400556_">
		<use xlink:href="#SVGID_00000172423235946021762720000004336444714876152503_"  style="overflow:visible;"/>
	</clipPath>
	<path style="clip-path:url(#SVGID_00000160907208379964443610000014983945107868400556_);fill:#FFFFFF;" d="M128.5,83V72.9h12.2
		c1,0,1.8,0.1,2.6,0.3c0.8,0.2,1.4,0.6,1.8,1.1c0.4,0.5,0.7,1.2,0.7,2.1c0,0.6-0.1,1.1-0.3,1.4c-0.2,0.4-0.5,0.7-0.9,0.9
		s-0.8,0.4-1.3,0.5c-0.5,0.1-1,0.2-1.5,0.2l-1.2-0.2c1.3,0,2.2,0.1,2.9,0.2c0.7,0.1,1.2,0.3,1.4,0.5c0.3,0.2,0.4,0.6,0.4,1.1V83h-4
		v-1.7c0-0.3-0.1-0.6-0.2-0.7c-0.1-0.2-0.4-0.3-0.8-0.3c-0.4-0.1-1-0.1-1.9-0.1h-6.2V83H128.5z M132.5,77.5h8.3
		c0.3,0,0.6-0.1,0.8-0.2c0.2-0.1,0.3-0.3,0.3-0.6c0-0.3-0.1-0.5-0.3-0.6c-0.2-0.1-0.5-0.2-0.8-0.2h-8.3V77.5z"/>
	<path style="clip-path:url(#SVGID_00000160907208379964443610000014983945107868400556_);fill:#FFFFFF;" d="M148,72.9h4V83h-4V72.9
		z M156.4,78.1v-0.9l9.1,5.9h-5.9l-7.7-5.4l7.1-4.7h5.6L156.4,78.1z"/>
	<polygon style="clip-path:url(#SVGID_00000160907208379964443610000014983945107868400556_);fill:#FFFFFF;" points="171.2,78.8 
		171.2,80 183.2,80 183.2,83 167.2,83 167.2,72.9 183.2,72.9 183.2,75.9 171.2,75.9 171.2,77.2 181,77.2 181,78.8 	"/>
	<path style="clip-path:url(#SVGID_00000160907208379964443610000014983945107868400556_);fill:#FFFFFF;" d="M184.6,72.9h16.4v3
		h-16.4V72.9z M190.9,75.7h4V83h-4V75.7z"/>
	
		<rect x="202.9" y="72.9" style="clip-path:url(#SVGID_00000160907208379964443610000014983945107868400556_);fill:#FFFFFF;" width="4" height="10.1"/>
	<polygon style="clip-path:url(#SVGID_00000160907208379964443610000014983945107868400556_);fill:#FFFFFF;" points="225.1,79.9 
		223.7,80.8 223.7,72.9 227.6,72.9 227.6,83 223.7,83 211.8,76.1 213.2,75.3 213.2,83 209.3,83 209.3,72.9 213.2,72.9 	"/>
	<path style="clip-path:url(#SVGID_00000160907208379964443610000014983945107868400556_);fill:#FFFFFF;" d="M239.1,83.4
		c-1.4,0-2.6-0.1-3.8-0.2c-1.1-0.2-2.1-0.4-3-0.8c-0.8-0.4-1.5-0.9-1.9-1.6c-0.5-0.7-0.7-1.5-0.7-2.6c0-1,0.2-1.9,0.7-2.6
		c0.5-0.7,1.1-1.3,2-1.7c0.9-0.4,1.9-0.7,3.1-0.9c1.2-0.2,2.6-0.3,4-0.3c2,0,3.6,0.2,4.9,0.5c1.3,0.4,2.3,0.9,3,1.5
		c0.7,0.7,1.1,1.4,1.1,2.3h-4.1c-0.1-0.2-0.4-0.5-0.7-0.7c-0.3-0.2-0.8-0.4-1.5-0.5c-0.7-0.1-1.6-0.2-2.7-0.2
		c-1.3,0-2.4,0.1-3.3,0.2c-0.8,0.2-1.5,0.4-1.9,0.8c-0.4,0.4-0.6,0.8-0.6,1.4c0,0.5,0.2,0.9,0.6,1.3c0.4,0.3,1,0.6,1.9,0.8
		c0.9,0.2,2.1,0.3,3.5,0.3c1,0,1.9,0,2.7-0.1c0.8-0.1,1.4-0.2,2.1-0.4c0.6-0.2,1.2-0.4,1.8-0.7l0.4,0.5c-0.7,1.2-1.6,2.2-2.9,2.8
		S241,83.4,239.1,83.4 M245.7,83c0-0.3,0-0.7,0.1-1.1c0.1-0.4,0.2-0.8,0.3-1.3c0.1-0.4,0.3-0.9,0.4-1.2h-6.2v-1.7h8.4V83H245.7z"/>
	<path style="clip-path:url(#SVGID_00000160907208379964443610000014983945107868400556_);fill:#FFFFFF;" d="M94.4,98.7
		c-1.4,0-2.6-0.1-3.8-0.2c-1.1-0.2-2.1-0.4-3-0.8c-0.8-0.4-1.5-0.9-1.9-1.6c-0.5-0.7-0.7-1.5-0.7-2.6c0-1,0.2-1.9,0.7-2.6
		c0.5-0.7,1.1-1.3,2-1.7c0.9-0.4,1.9-0.7,3.1-0.9c1.2-0.2,2.6-0.3,4-0.3c1.9,0,3.6,0.2,4.9,0.5c1.3,0.4,2.3,0.9,3,1.5
		c0.7,0.7,1.1,1.4,1.1,2.3h-4.1c-0.1-0.2-0.4-0.5-0.7-0.7c-0.3-0.2-0.8-0.4-1.5-0.5c-0.7-0.1-1.6-0.2-2.7-0.2
		c-1.3,0-2.4,0.1-3.3,0.2c-0.8,0.2-1.5,0.4-1.8,0.8c-0.4,0.4-0.6,0.8-0.6,1.4c0,0.5,0.2,0.9,0.6,1.3c0.4,0.3,1,0.6,1.9,0.8
		c0.9,0.2,2.1,0.3,3.5,0.3c1,0,1.9,0,2.7-0.1c0.8-0.1,1.4-0.2,2.1-0.4c0.6-0.2,1.2-0.4,1.8-0.7l0.4,0.5c-0.7,1.2-1.6,2.2-2.9,2.8
		S96.4,98.7,94.4,98.7 M101.1,98.4c0-0.3,0-0.7,0.1-1.1c0.1-0.4,0.2-0.8,0.3-1.3c0.1-0.4,0.3-0.9,0.4-1.2h-6.2v-1.7h8.4v5.2H101.1z"
		/>
	<path style="clip-path:url(#SVGID_00000160907208379964443610000014983945107868400556_);fill:#FFFFFF;" d="M106.4,98.4V88.2h12.2
		c1,0,1.8,0.1,2.6,0.3c0.8,0.2,1.4,0.6,1.8,1.1c0.4,0.5,0.7,1.2,0.7,2.1c0,0.6-0.1,1.1-0.3,1.4c-0.2,0.4-0.5,0.7-0.9,0.9
		c-0.4,0.2-0.8,0.4-1.3,0.5c-0.5,0.1-1,0.2-1.5,0.2l-1.2-0.2c1.3,0,2.2,0.1,2.9,0.2c0.7,0.1,1.2,0.3,1.4,0.5
		c0.3,0.2,0.4,0.6,0.4,1.1v2.2h-4v-1.7c0-0.3-0.1-0.6-0.2-0.7c-0.1-0.2-0.4-0.3-0.8-0.3c-0.4-0.1-1-0.1-1.9-0.1h-6.2v2.8H106.4z
		 M110.4,92.9h8.3c0.3,0,0.6-0.1,0.8-0.2c0.2-0.1,0.3-0.3,0.3-0.6c0-0.3-0.1-0.5-0.3-0.6c-0.2-0.1-0.5-0.1-0.8-0.1h-8.3V92.9z"/>
	<path style="clip-path:url(#SVGID_00000160907208379964443610000014983945107868400556_);fill:#FFFFFF;" d="M135.3,98.7
		c-2.3,0-4.1-0.2-5.6-0.6c-1.4-0.4-2.4-1-3.1-1.8c-0.6-0.8-1-1.8-1-3c0-1.2,0.3-2.2,1-3c0.6-0.8,1.7-1.4,3.1-1.8
		c1.4-0.4,3.3-0.6,5.6-0.6s4.1,0.2,5.6,0.6c1.4,0.4,2.4,1,3.1,1.8c0.6,0.8,1,1.8,1,3c0,1.2-0.3,2.2-1,3c-0.6,0.8-1.7,1.4-3.1,1.8
		C139.4,98.5,137.6,98.7,135.3,98.7 M135.3,95.7c1.1,0,2-0.1,2.8-0.2c0.8-0.1,1.4-0.4,1.8-0.7c0.4-0.3,0.6-0.8,0.6-1.5
		c0-0.6-0.2-1.1-0.6-1.5c-0.4-0.3-1-0.6-1.8-0.7c-0.8-0.1-1.7-0.2-2.8-0.2s-2,0.1-2.9,0.2c-0.8,0.1-1.5,0.4-1.9,0.7
		c-0.5,0.3-0.7,0.8-0.7,1.5c0,0.6,0.2,1.1,0.7,1.5c0.5,0.3,1.1,0.6,1.9,0.7C133.3,95.6,134.2,95.7,135.3,95.7"/>
	<path style="clip-path:url(#SVGID_00000160907208379964443610000014983945107868400556_);fill:#FFFFFF;" d="M161.1,92.6v-4.3h4v5.1
		c0,0.9-0.2,1.7-0.5,2.3c-0.3,0.6-0.8,1.1-1.4,1.6c-0.6,0.4-1.3,0.7-2,0.9c-0.8,0.2-1.6,0.4-2.5,0.5c-0.9,0.1-1.8,0.1-2.7,0.1
		c-1,0-1.9,0-2.8-0.1c-0.9-0.1-1.7-0.2-2.5-0.5c-0.8-0.2-1.4-0.5-2-0.9c-0.6-0.4-1-0.9-1.3-1.6c-0.3-0.6-0.5-1.4-0.5-2.3v-5.1h4v4.3
		c0,0.8,0.2,1.5,0.6,1.9c0.4,0.4,1,0.7,1.8,0.9c0.8,0.2,1.7,0.2,2.8,0.2c1,0,1.9-0.1,2.7-0.2c0.8-0.2,1.4-0.5,1.8-0.9
		C160.9,94.1,161.1,93.4,161.1,92.6"/>
	<path style="clip-path:url(#SVGID_00000160907208379964443610000014983945107868400556_);fill:#FFFFFF;" d="M171,95.7V93h7.9
		c0.3,0,0.6,0,0.8-0.2c0.2-0.1,0.3-0.3,0.3-0.6c0-0.3-0.1-0.6-0.3-0.6c-0.2-0.1-0.5-0.1-0.8-0.1h-7.6v7h-4V88.2h11
		c0.8,0,1.5,0.1,2.2,0.2c0.7,0.1,1.3,0.3,1.8,0.6c0.5,0.3,0.9,0.7,1.2,1.2c0.3,0.5,0.4,1.2,0.4,2c0,0.8-0.1,1.5-0.4,1.9
		c-0.3,0.5-0.7,0.8-1.2,1.1c-0.5,0.2-1.1,0.4-1.8,0.5c-0.7,0.1-1.4,0.1-2.2,0.1H171z"/>
</g>
</svg>
